<svg width="150" height="67" viewBox="0 0 150 67" fill="none" xmlns="http://www.w3.org/2000/svg">
<path d="M46.4357 13.5361C39.1874 13.5361 29.1782 18.5089 29.1782 27.7773C29.1782 33.5994 34.9739 32.4948 39.4467 33.3018C45.2265 34.3455 53.7752 35.1128 54.5266 44.4698C55.2092 52.9642 45.8628 58.0813 39.366 58.0813C34.1696 58.0813 23.8204 56.8893 25.5574 48.7574C27.0087 43.5782 32.8388 43.8189 35.7452 47.7983C38.6516 51.7763 46.7889 53.0674 46.7889 46.8974C46.7889 40.7273 35.2729 41.6679 30.3093 41.4946C25.3458 41.3213 13.343 39.0128 13.343 30.6917C13.343 22.3705 18.4772 18.7272 20.1202 21.4405C20.3782 21.8665 21.0212 23.2132 22.0107 23.8562C23.4818 24.8113 25.5177 24.5203 26.5549 19.816C27.776 14.2849 33.6153 7.98779 47.8962 7.98779C62.177 7.98779 64.045 13.8245 64.045 16.7323C64.045 19.64 64.4366 24.7676 60.9904 24.7676C57.5442 24.7676 58.3234 21.1296 55.868 18.0856C53.414 15.0416 49.8131 13.5348 46.4343 13.5348L46.4357 13.5361Z" fill="#79CCDD"/>
<path d="M22.8931 21.1229C24.2163 21.1229 25.2889 20.0503 25.2889 18.7271C25.2889 17.4039 24.2163 16.3313 22.8931 16.3313C21.57 16.3313 20.4973 17.4039 20.4973 18.7271C20.4973 20.0503 21.57 21.1229 22.8931 21.1229Z" fill="#1B4D9D"/>
<path d="M75.3835 33.4298C74.1757 33.4298 73.5712 33.787 73.5712 34.5001C73.5712 35.2131 74.2022 35.6801 75.4656 36.0095L77.6338 36.5863C79.8669 37.1724 80.9834 38.4622 80.9834 40.4572C80.9834 41.8304 80.5032 42.9509 79.5415 43.82C78.581 44.6892 77.0517 45.1244 74.9562 45.1244C72.8607 45.1244 71.2269 44.832 70.0562 44.246C70.0376 44.0449 70.0284 43.8438 70.0284 43.6414C70.0284 42.6347 70.2295 41.7285 70.633 40.9242H72.911C73.1491 41.3634 73.3039 41.8211 73.378 42.2973C73.7444 42.4071 74.2657 42.4627 74.943 42.4627C76.553 42.4627 77.3587 42.005 77.3587 41.0895C77.3587 40.7972 77.2489 40.5537 77.0293 40.3619C76.8096 40.1701 76.3797 39.9822 75.7394 39.7997L73.5712 39.1686C72.4546 38.8578 71.5855 38.3961 70.9637 37.7822C70.3406 37.1697 70.0297 36.2635 70.0297 35.065C70.0297 33.8664 70.5139 32.8822 71.4849 32.1135C72.4546 31.3449 73.841 30.96 75.6442 30.96C77.4473 30.96 78.97 31.2259 80.2148 31.7564C80.2333 31.9389 80.2426 32.1228 80.2426 32.3054C80.2426 33.2579 80.0415 34.1363 79.638 34.9406H77.3878C77.1496 34.5199 76.9935 34.0807 76.9208 33.623C76.4088 33.4947 75.8955 33.4312 75.3835 33.4312V33.4298Z" fill="#1B4D9D"/>
<path d="M88.7251 33.7591C87.041 33.7591 86.1996 35.2051 86.1996 38.097C86.1996 39.5615 86.4325 40.5814 86.8995 41.1582C87.3664 41.735 88.0385 42.0234 88.9169 42.0234C90.3073 42.0234 91.5336 41.8951 92.5959 41.6398L93.4201 43.7538C92.834 44.1374 92.0469 44.4628 91.0587 44.7288C90.0705 44.9933 89.11 45.127 88.1761 45.127C84.2232 45.127 82.2468 42.8396 82.2468 38.2637C82.2468 35.5914 82.9334 33.6705 84.3052 32.4984C85.5316 31.4732 87.0225 30.9612 88.7793 30.9612C90.5361 30.9612 92.0006 31.2906 93.1714 31.9494C93.1899 32.132 93.1992 32.3066 93.1992 32.4706C93.1992 33.5144 92.961 34.5026 92.4848 35.4353H90.0692C89.8125 34.9775 89.6577 34.4285 89.6022 33.7883C89.3826 33.7697 89.0889 33.7605 88.7238 33.7605L88.7251 33.7591Z" fill="#1B4D9D"/>
<path d="M102.863 34.5557C101.473 34.5557 100.511 34.8216 99.9805 35.3521V41.6386C101.464 41.9137 102.48 42.2974 103.029 42.7922L102.753 44.9062H94.9019L94.6267 42.7922C94.8834 42.4442 95.3861 42.1333 96.1362 41.8582V34.2263C95.4959 34.0067 94.9918 33.6958 94.6267 33.2923L94.9019 31.1783C95.9086 30.9587 96.8148 30.8489 97.6191 30.8489C98.4235 30.8489 99.0915 30.8674 99.6234 30.9044V32.6335C100.044 32.1387 100.584 31.7326 101.243 31.4124C101.901 31.0923 102.501 30.9322 103.04 30.9322C103.58 30.9322 103.951 30.9785 104.152 31.0698L104.07 34.639C103.703 34.5835 103.301 34.557 102.862 34.557L102.863 34.5557Z" fill="#1B4D9D"/>
<path d="M105.608 31.1796C106.633 30.9415 107.585 30.8224 108.463 30.8224C109.341 30.8224 110.082 30.8502 110.687 30.9044V41.8582C111.4 42.1333 111.904 42.4442 112.196 42.7921L111.921 44.9062H105.607L105.333 42.7921C105.588 42.4442 106.092 42.1333 106.842 41.8582V34.2263C106.202 34.0067 105.698 33.6958 105.333 33.2923L105.607 31.1783L105.608 31.1796ZM108.724 29.2852C107.196 29.2852 106.431 28.5946 106.431 27.2122C106.431 25.8297 107.196 25.1392 108.724 25.1392C110.252 25.1392 111.016 25.8297 111.016 27.2122C111.016 28.5946 110.252 29.2852 108.724 29.2852Z" fill="#1B4D9D"/>
<path d="M118.291 27.7205V31.1799H122.216V33.4857H118.291V40.431C118.291 41.0171 118.373 41.4431 118.538 41.7076C118.704 41.9735 119.097 42.1058 119.718 42.1058C120.34 42.1058 121.008 41.9683 121.723 41.6944L122.547 43.8362C121.138 44.5506 119.696 44.9064 118.223 44.9064C116.751 44.9064 115.752 44.5903 115.231 43.9592C114.71 43.3282 114.448 42.4088 114.448 41.1996V33.4857H113.212L112.911 31.8109C113.203 31.463 113.808 31.1151 114.723 30.7685C114.943 29.2683 115.464 28.2523 116.288 27.7205H118.292H118.291Z" fill="#1B4D9D"/>
<path d="M129.862 45.1257C127.694 45.1257 126.088 44.5489 125.044 43.3967C124.001 42.2431 123.479 40.5008 123.479 38.1672C123.479 35.8336 124.06 34.049 125.223 32.8134C126.386 31.5778 128.055 30.96 130.233 30.96C132.41 30.96 134.026 31.509 135.079 32.607C136.13 33.705 136.657 35.4208 136.657 37.7545C136.657 40.0881 136.067 41.9005 134.887 43.1903C133.707 44.4802 132.032 45.1257 129.862 45.1257ZM127.434 37.933C127.434 40.862 128.312 42.3251 130.069 42.3251C130.966 42.3251 131.629 41.9917 132.06 41.3223C132.49 40.6543 132.705 39.5616 132.705 38.0415C132.705 35.1867 131.808 33.7592 130.015 33.7592C129.136 33.7592 128.487 34.0754 128.066 34.7065C127.645 35.3375 127.435 36.413 127.435 37.9317L127.434 37.933Z" fill="#1B4D9D"/>
</svg>
